<mxfile host="app.diagrams.net" modified="2024-05-17T09:41:16.791Z" agent="Mozilla/5.0 (Windows NT 10.0; Win64; x64) AppleWebKit/537.36 (KHTML, like Gecko) Chrome/105.0.0.0 Safari/537.36" etag="3DyIzdMNZySBEYPYerYx" version="24.4.3" type="github">
  <diagram id="C5RBs43oDa-KdzZeNtuy" name="Page-1">
    <mxGraphModel dx="1050" dy="549" grid="1" gridSize="10" guides="1" tooltips="1" connect="1" arrows="1" fold="1" page="1" pageScale="1" pageWidth="827" pageHeight="1169" math="0" shadow="0">
      <root>
        <mxCell id="WIyWlLk6GJQsqaUBKTNV-0" />
        <mxCell id="WIyWlLk6GJQsqaUBKTNV-1" parent="WIyWlLk6GJQsqaUBKTNV-0" />
        <mxCell id="WIyWlLk6GJQsqaUBKTNV-2" value="" style="rounded=0;html=1;jettySize=auto;orthogonalLoop=1;fontSize=11;endArrow=block;endFill=0;endSize=8;strokeWidth=1;shadow=0;labelBackgroundColor=none;edgeStyle=orthogonalEdgeStyle;fontFamily=Helvetica;fontStyle=0" parent="WIyWlLk6GJQsqaUBKTNV-1" source="WIyWlLk6GJQsqaUBKTNV-3" edge="1">
          <mxGeometry relative="1" as="geometry">
            <mxPoint x="220" y="133" as="targetPoint" />
          </mxGeometry>
        </mxCell>
        <mxCell id="WIyWlLk6GJQsqaUBKTNV-3" value="网文正文内容" style="rounded=1;whiteSpace=wrap;html=1;fontSize=12;glass=0;strokeWidth=1;shadow=0;fontFamily=Helvetica;fontStyle=0" parent="WIyWlLk6GJQsqaUBKTNV-1" vertex="1">
          <mxGeometry x="340" y="52" width="120" height="40" as="geometry" />
        </mxCell>
        <mxCell id="mJR7JdLs0RT9bX_tm5gu-2" style="edgeStyle=orthogonalEdgeStyle;rounded=0;orthogonalLoop=1;jettySize=auto;html=1;exitX=0.5;exitY=1;exitDx=0;exitDy=0;entryX=0.5;entryY=0;entryDx=0;entryDy=0;fontFamily=Helvetica;fontStyle=0" parent="WIyWlLk6GJQsqaUBKTNV-1" source="WIyWlLk6GJQsqaUBKTNV-7" target="WIyWlLk6GJQsqaUBKTNV-12" edge="1">
          <mxGeometry relative="1" as="geometry" />
        </mxCell>
        <mxCell id="WIyWlLk6GJQsqaUBKTNV-7" value="&lt;p class=&quot;MsoNormal&quot;&gt;&lt;font style=&quot;font-size: 12px;&quot;&gt;&lt;span style=&quot;background-color: initial;&quot;&gt;RaNER&lt;/span&gt;人物域抽取&lt;/font&gt;&lt;/p&gt;" style="rounded=1;whiteSpace=wrap;html=1;fontSize=12;glass=0;strokeWidth=1;shadow=0;fontFamily=Helvetica;fontStyle=0" parent="WIyWlLk6GJQsqaUBKTNV-1" vertex="1">
          <mxGeometry x="160" y="133" width="120" height="40" as="geometry" />
        </mxCell>
        <mxCell id="WIyWlLk6GJQsqaUBKTNV-11" value="角色属性定位" style="rounded=1;whiteSpace=wrap;html=1;fontSize=12;glass=0;strokeWidth=1;shadow=0;fontFamily=Helvetica;fontStyle=0" parent="WIyWlLk6GJQsqaUBKTNV-1" vertex="1">
          <mxGeometry x="70" y="293" width="80" height="40" as="geometry" />
        </mxCell>
        <mxCell id="WIyWlLk6GJQsqaUBKTNV-12" value="角色筛选" style="rounded=1;whiteSpace=wrap;html=1;fontSize=12;glass=0;strokeWidth=1;shadow=0;fontFamily=Helvetica;fontStyle=0" parent="WIyWlLk6GJQsqaUBKTNV-1" vertex="1">
          <mxGeometry x="160" y="213" width="120" height="40" as="geometry" />
        </mxCell>
        <mxCell id="mJR7JdLs0RT9bX_tm5gu-5" style="edgeStyle=orthogonalEdgeStyle;rounded=0;orthogonalLoop=1;jettySize=auto;html=1;exitX=0.5;exitY=1;exitDx=0;exitDy=0;entryX=0.5;entryY=0;entryDx=0;entryDy=0;fontFamily=Helvetica;fontStyle=0" parent="WIyWlLk6GJQsqaUBKTNV-1" source="mJR7JdLs0RT9bX_tm5gu-6" target="mJR7JdLs0RT9bX_tm5gu-9" edge="1">
          <mxGeometry relative="1" as="geometry" />
        </mxCell>
        <mxCell id="mJR7JdLs0RT9bX_tm5gu-6" value="&lt;p class=&quot;MsoNormal&quot;&gt;&lt;font style=&quot;font-size: 12px;&quot;&gt;&lt;span style=&quot;background-color: initial;&quot;&gt;RaNER&lt;/span&gt;场景域抽取&lt;/font&gt;&lt;/p&gt;" style="rounded=1;whiteSpace=wrap;html=1;fontSize=12;glass=0;strokeWidth=1;shadow=0;fontFamily=Helvetica;fontStyle=0" parent="WIyWlLk6GJQsqaUBKTNV-1" vertex="1">
          <mxGeometry x="340" y="133" width="120" height="40" as="geometry" />
        </mxCell>
        <mxCell id="mJR7JdLs0RT9bX_tm5gu-7" value="角色名称对齐" style="rounded=1;whiteSpace=wrap;html=1;fontSize=12;glass=0;strokeWidth=1;shadow=0;fontFamily=Helvetica;fontStyle=0" parent="WIyWlLk6GJQsqaUBKTNV-1" vertex="1">
          <mxGeometry x="260" y="293" width="80" height="40" as="geometry" />
        </mxCell>
        <mxCell id="mJR7JdLs0RT9bX_tm5gu-9" value="场景识别" style="rounded=1;whiteSpace=wrap;html=1;fontSize=12;glass=0;strokeWidth=1;shadow=0;fontFamily=Helvetica;fontStyle=0" parent="WIyWlLk6GJQsqaUBKTNV-1" vertex="1">
          <mxGeometry x="340" y="213" width="120" height="40" as="geometry" />
        </mxCell>
        <mxCell id="mJR7JdLs0RT9bX_tm5gu-12" value="" style="rounded=0;html=1;jettySize=auto;orthogonalLoop=1;fontSize=11;endArrow=block;endFill=0;endSize=8;strokeWidth=1;shadow=0;labelBackgroundColor=none;edgeStyle=orthogonalEdgeStyle;exitX=0.5;exitY=1;exitDx=0;exitDy=0;entryX=0.5;entryY=0;entryDx=0;entryDy=0;fontFamily=Helvetica;fontStyle=0" parent="WIyWlLk6GJQsqaUBKTNV-1" source="WIyWlLk6GJQsqaUBKTNV-3" target="mJR7JdLs0RT9bX_tm5gu-6" edge="1">
          <mxGeometry relative="1" as="geometry">
            <mxPoint x="350" y="73" as="sourcePoint" />
            <mxPoint x="230" y="143" as="targetPoint" />
            <Array as="points">
              <mxPoint x="400" y="123" />
              <mxPoint x="400" y="123" />
            </Array>
          </mxGeometry>
        </mxCell>
        <mxCell id="mJR7JdLs0RT9bX_tm5gu-13" value="" style="rounded=0;html=1;jettySize=auto;orthogonalLoop=1;fontSize=11;endArrow=block;endFill=0;endSize=8;strokeWidth=1;shadow=0;labelBackgroundColor=none;edgeStyle=orthogonalEdgeStyle;exitX=1;exitY=0.5;exitDx=0;exitDy=0;fontFamily=Helvetica;fontStyle=0" parent="WIyWlLk6GJQsqaUBKTNV-1" source="WIyWlLk6GJQsqaUBKTNV-3" edge="1">
          <mxGeometry relative="1" as="geometry">
            <mxPoint x="710" y="63" as="sourcePoint" />
            <mxPoint x="590" y="133" as="targetPoint" />
          </mxGeometry>
        </mxCell>
        <mxCell id="mJR7JdLs0RT9bX_tm5gu-14" style="edgeStyle=orthogonalEdgeStyle;rounded=0;orthogonalLoop=1;jettySize=auto;html=1;exitX=0.5;exitY=1;exitDx=0;exitDy=0;entryX=0.5;entryY=0;entryDx=0;entryDy=0;fontFamily=Helvetica;fontStyle=0" parent="WIyWlLk6GJQsqaUBKTNV-1" source="mJR7JdLs0RT9bX_tm5gu-15" target="mJR7JdLs0RT9bX_tm5gu-18" edge="1">
          <mxGeometry relative="1" as="geometry" />
        </mxCell>
        <mxCell id="mJR7JdLs0RT9bX_tm5gu-15" value="&lt;p class=&quot;MsoNormal&quot;&gt;&lt;font style=&quot;font-size: 12px;&quot;&gt;&lt;span style=&quot;background-color: initial;&quot;&gt;RaNER&lt;/span&gt;情节域抽取&lt;/font&gt;&lt;/p&gt;" style="rounded=1;whiteSpace=wrap;html=1;fontSize=12;glass=0;strokeWidth=1;shadow=0;fontFamily=Helvetica;fontStyle=0" parent="WIyWlLk6GJQsqaUBKTNV-1" vertex="1">
          <mxGeometry x="530" y="133" width="120" height="40" as="geometry" />
        </mxCell>
        <mxCell id="mJR7JdLs0RT9bX_tm5gu-16" value="&lt;p class=&quot;MsoNormal&quot;&gt;&lt;span style=&quot;font-size: 10.5pt;&quot;&gt;动机目标维度&lt;/span&gt;&lt;/p&gt;" style="rounded=1;whiteSpace=wrap;html=1;fontSize=12;glass=0;strokeWidth=1;shadow=0;fontFamily=Helvetica;fontStyle=0" parent="WIyWlLk6GJQsqaUBKTNV-1" vertex="1">
          <mxGeometry x="80" y="430" width="120" height="40" as="geometry" />
        </mxCell>
        <mxCell id="mJR7JdLs0RT9bX_tm5gu-18" value="情节定位" style="rounded=1;whiteSpace=wrap;html=1;fontSize=12;glass=0;strokeWidth=1;shadow=0;fontFamily=Helvetica;fontStyle=0" parent="WIyWlLk6GJQsqaUBKTNV-1" vertex="1">
          <mxGeometry x="530" y="213" width="120" height="40" as="geometry" />
        </mxCell>
        <mxCell id="xiwa6ENlaoKIlXkBNb6t-0" value="角色权重计算" style="rounded=1;whiteSpace=wrap;html=1;fontSize=12;glass=0;strokeWidth=1;shadow=0;fontFamily=Helvetica;fontStyle=0" parent="WIyWlLk6GJQsqaUBKTNV-1" vertex="1">
          <mxGeometry x="166" y="293" width="80" height="40" as="geometry" />
        </mxCell>
        <mxCell id="xiwa6ENlaoKIlXkBNb6t-1" value="&lt;p class=&quot;MsoNormal&quot;&gt;&lt;span style=&quot;font-size: 10.5pt;&quot;&gt;经历背景维度&lt;/span&gt;&lt;/p&gt;" style="rounded=1;whiteSpace=wrap;html=1;fontSize=12;glass=0;strokeWidth=1;shadow=0;fontFamily=Helvetica;fontStyle=0" parent="WIyWlLk6GJQsqaUBKTNV-1" vertex="1">
          <mxGeometry x="240" y="430" width="120" height="40" as="geometry" />
        </mxCell>
        <mxCell id="xiwa6ENlaoKIlXkBNb6t-2" value="&lt;p class=&quot;MsoNormal&quot;&gt;&lt;span style=&quot;font-size: 10.5pt;&quot;&gt;对抗变革维度&lt;/span&gt;&lt;/p&gt;" style="rounded=1;whiteSpace=wrap;html=1;fontSize=12;glass=0;strokeWidth=1;shadow=0;fontFamily=Helvetica;fontStyle=0" parent="WIyWlLk6GJQsqaUBKTNV-1" vertex="1">
          <mxGeometry x="400" y="430" width="120" height="40" as="geometry" />
        </mxCell>
        <mxCell id="xiwa6ENlaoKIlXkBNb6t-3" value="&lt;p class=&quot;MsoNormal&quot;&gt;&lt;span style=&quot;font-size: 10.5pt;&quot;&gt;互动关系维度&lt;/span&gt;&lt;/p&gt;" style="rounded=1;whiteSpace=wrap;html=1;fontSize=12;glass=0;strokeWidth=1;shadow=0;fontFamily=Helvetica;fontStyle=0" parent="WIyWlLk6GJQsqaUBKTNV-1" vertex="1">
          <mxGeometry x="560" y="430" width="120" height="40" as="geometry" />
        </mxCell>
        <mxCell id="xiwa6ENlaoKIlXkBNb6t-4" value="&lt;p class=&quot;MsoNormal&quot;&gt;&lt;span&gt;&lt;span style=&quot;font-size: 10.5pt;&quot;&gt;性格刻画维度&lt;/span&gt;&lt;/span&gt;&lt;/p&gt;" style="rounded=1;whiteSpace=wrap;html=1;fontSize=12;glass=0;strokeWidth=1;shadow=0;fontFamily=Helvetica;fontStyle=0" parent="WIyWlLk6GJQsqaUBKTNV-1" vertex="1">
          <mxGeometry x="80" y="494" width="120" height="40" as="geometry" />
        </mxCell>
        <mxCell id="xiwa6ENlaoKIlXkBNb6t-5" value="&lt;p class=&quot;MsoNormal&quot;&gt;&lt;span&gt;&lt;span style=&quot;font-size: 10.5pt;&quot;&gt;成长轨迹维度&lt;/span&gt;&lt;/span&gt;&lt;/p&gt;" style="rounded=1;whiteSpace=wrap;html=1;fontSize=12;glass=0;strokeWidth=1;shadow=0;fontFamily=Helvetica;fontStyle=0" parent="WIyWlLk6GJQsqaUBKTNV-1" vertex="1">
          <mxGeometry x="240" y="494" width="120" height="40" as="geometry" />
        </mxCell>
        <mxCell id="xiwa6ENlaoKIlXkBNb6t-6" value="&lt;p class=&quot;MsoNormal&quot;&gt;&lt;span&gt;&lt;span style=&quot;font-size: 10.5pt;&quot;&gt;外貌形象维度&lt;/span&gt;&lt;/span&gt;&lt;/p&gt;" style="rounded=1;whiteSpace=wrap;html=1;fontSize=12;glass=0;strokeWidth=1;shadow=0;fontFamily=Helvetica;fontStyle=0" parent="WIyWlLk6GJQsqaUBKTNV-1" vertex="1">
          <mxGeometry x="400" y="494" width="120" height="40" as="geometry" />
        </mxCell>
        <mxCell id="xiwa6ENlaoKIlXkBNb6t-7" value="&lt;p class=&quot;MsoNormal&quot;&gt;&lt;span&gt;&lt;span style=&quot;font-size: 10.5pt;&quot;&gt;习惯细节维度&lt;/span&gt;&lt;/span&gt;&lt;/p&gt;" style="rounded=1;whiteSpace=wrap;html=1;fontSize=12;glass=0;strokeWidth=1;shadow=0;fontFamily=Helvetica;fontStyle=0" parent="WIyWlLk6GJQsqaUBKTNV-1" vertex="1">
          <mxGeometry x="560" y="494" width="120" height="40" as="geometry" />
        </mxCell>
        <mxCell id="xiwa6ENlaoKIlXkBNb6t-9" value="场景聚类" style="rounded=1;whiteSpace=wrap;html=1;fontSize=12;glass=0;strokeWidth=1;shadow=0;fontFamily=Helvetica;fontStyle=0" parent="WIyWlLk6GJQsqaUBKTNV-1" vertex="1">
          <mxGeometry x="444" y="293" width="80" height="40" as="geometry" />
        </mxCell>
        <mxCell id="xiwa6ENlaoKIlXkBNb6t-10" value="场景权重计算" style="rounded=1;whiteSpace=wrap;html=1;fontSize=12;glass=0;strokeWidth=1;shadow=0;fontFamily=Helvetica;fontStyle=0" parent="WIyWlLk6GJQsqaUBKTNV-1" vertex="1">
          <mxGeometry x="352" y="293" width="80" height="40" as="geometry" />
        </mxCell>
        <mxCell id="xiwa6ENlaoKIlXkBNb6t-11" value="情节聚类" style="rounded=1;whiteSpace=wrap;html=1;fontSize=12;glass=0;strokeWidth=1;shadow=0;fontFamily=Helvetica;fontStyle=0" parent="WIyWlLk6GJQsqaUBKTNV-1" vertex="1">
          <mxGeometry x="532" y="293" width="80" height="40" as="geometry" />
        </mxCell>
        <mxCell id="xiwa6ENlaoKIlXkBNb6t-13" value="重要情节定位" style="rounded=1;whiteSpace=wrap;html=1;fontSize=12;glass=0;strokeWidth=1;shadow=0;fontFamily=Helvetica;fontStyle=0" parent="WIyWlLk6GJQsqaUBKTNV-1" vertex="1">
          <mxGeometry x="620" y="293" width="80" height="40" as="geometry" />
        </mxCell>
        <mxCell id="xiwa6ENlaoKIlXkBNb6t-14" value="" style="endArrow=classic;html=1;rounded=0;entryX=0.38;entryY=0.015;entryDx=0;entryDy=0;entryPerimeter=0;fontFamily=Helvetica;fontStyle=0" parent="WIyWlLk6GJQsqaUBKTNV-1" target="mJR7JdLs0RT9bX_tm5gu-7" edge="1">
          <mxGeometry width="50" height="50" relative="1" as="geometry">
            <mxPoint x="220" y="253" as="sourcePoint" />
            <mxPoint x="270" y="203" as="targetPoint" />
          </mxGeometry>
        </mxCell>
        <mxCell id="xiwa6ENlaoKIlXkBNb6t-16" value="" style="endArrow=classic;html=1;rounded=0;exitX=0.5;exitY=1;exitDx=0;exitDy=0;entryX=0.5;entryY=0;entryDx=0;entryDy=0;fontFamily=Helvetica;fontStyle=0" parent="WIyWlLk6GJQsqaUBKTNV-1" source="mJR7JdLs0RT9bX_tm5gu-9" target="xiwa6ENlaoKIlXkBNb6t-10" edge="1">
          <mxGeometry width="50" height="50" relative="1" as="geometry">
            <mxPoint x="490" y="453" as="sourcePoint" />
            <mxPoint x="540" y="403" as="targetPoint" />
            <Array as="points" />
          </mxGeometry>
        </mxCell>
        <mxCell id="xiwa6ENlaoKIlXkBNb6t-19" value="" style="endArrow=classic;html=1;rounded=0;exitX=0.5;exitY=1;exitDx=0;exitDy=0;entryX=0.5;entryY=0;entryDx=0;entryDy=0;fontFamily=Helvetica;fontStyle=0" parent="WIyWlLk6GJQsqaUBKTNV-1" source="mJR7JdLs0RT9bX_tm5gu-9" target="xiwa6ENlaoKIlXkBNb6t-9" edge="1">
          <mxGeometry width="50" height="50" relative="1" as="geometry">
            <mxPoint x="490" y="453" as="sourcePoint" />
            <mxPoint x="540" y="403" as="targetPoint" />
          </mxGeometry>
        </mxCell>
        <mxCell id="xiwa6ENlaoKIlXkBNb6t-20" value="" style="endArrow=classic;html=1;rounded=0;exitX=0.5;exitY=1;exitDx=0;exitDy=0;entryX=0.5;entryY=0;entryDx=0;entryDy=0;fontFamily=Helvetica;fontStyle=0" parent="WIyWlLk6GJQsqaUBKTNV-1" source="mJR7JdLs0RT9bX_tm5gu-18" target="xiwa6ENlaoKIlXkBNb6t-11" edge="1">
          <mxGeometry width="50" height="50" relative="1" as="geometry">
            <mxPoint x="490" y="453" as="sourcePoint" />
            <mxPoint x="540" y="403" as="targetPoint" />
          </mxGeometry>
        </mxCell>
        <mxCell id="xiwa6ENlaoKIlXkBNb6t-21" value="" style="endArrow=classic;html=1;rounded=0;exitX=0.5;exitY=1;exitDx=0;exitDy=0;entryX=0.5;entryY=0;entryDx=0;entryDy=0;fontFamily=Helvetica;fontStyle=0" parent="WIyWlLk6GJQsqaUBKTNV-1" source="mJR7JdLs0RT9bX_tm5gu-18" target="xiwa6ENlaoKIlXkBNb6t-13" edge="1">
          <mxGeometry width="50" height="50" relative="1" as="geometry">
            <mxPoint x="490" y="453" as="sourcePoint" />
            <mxPoint x="540" y="403" as="targetPoint" />
          </mxGeometry>
        </mxCell>
        <mxCell id="xiwa6ENlaoKIlXkBNb6t-23" value="" style="endArrow=none;dashed=1;html=1;dashPattern=1 3;strokeWidth=2;rounded=0;fontFamily=Helvetica;fontStyle=0" parent="WIyWlLk6GJQsqaUBKTNV-1" edge="1">
          <mxGeometry width="50" height="50" relative="1" as="geometry">
            <mxPoint x="60" y="400" as="sourcePoint" />
            <mxPoint x="710" y="400" as="targetPoint" />
          </mxGeometry>
        </mxCell>
        <mxCell id="xiwa6ENlaoKIlXkBNb6t-24" value="" style="endArrow=none;dashed=1;html=1;dashPattern=1 3;strokeWidth=2;rounded=0;fontFamily=Helvetica;fontStyle=0" parent="WIyWlLk6GJQsqaUBKTNV-1" edge="1">
          <mxGeometry width="50" height="50" relative="1" as="geometry">
            <mxPoint x="60" y="610" as="sourcePoint" />
            <mxPoint x="60" y="400" as="targetPoint" />
          </mxGeometry>
        </mxCell>
        <mxCell id="xiwa6ENlaoKIlXkBNb6t-25" value="" style="endArrow=none;dashed=1;html=1;dashPattern=1 3;strokeWidth=2;rounded=0;fontFamily=Helvetica;fontStyle=0" parent="WIyWlLk6GJQsqaUBKTNV-1" edge="1">
          <mxGeometry width="50" height="50" relative="1" as="geometry">
            <mxPoint x="60" y="610" as="sourcePoint" />
            <mxPoint x="710" y="610" as="targetPoint" />
          </mxGeometry>
        </mxCell>
        <mxCell id="xiwa6ENlaoKIlXkBNb6t-26" value="" style="endArrow=none;dashed=1;html=1;dashPattern=1 3;strokeWidth=2;rounded=0;fontFamily=Helvetica;fontStyle=0" parent="WIyWlLk6GJQsqaUBKTNV-1" edge="1">
          <mxGeometry width="50" height="50" relative="1" as="geometry">
            <mxPoint x="710" y="610" as="sourcePoint" />
            <mxPoint x="710" y="400" as="targetPoint" />
          </mxGeometry>
        </mxCell>
        <mxCell id="xiwa6ENlaoKIlXkBNb6t-27" value="" style="endArrow=classic;html=1;rounded=0;entryX=0.5;entryY=0;entryDx=0;entryDy=0;fontFamily=Helvetica;fontStyle=0" parent="WIyWlLk6GJQsqaUBKTNV-1" target="WIyWlLk6GJQsqaUBKTNV-11" edge="1">
          <mxGeometry width="50" height="50" relative="1" as="geometry">
            <mxPoint x="220" y="253" as="sourcePoint" />
            <mxPoint x="480" y="403" as="targetPoint" />
          </mxGeometry>
        </mxCell>
        <mxCell id="xiwa6ENlaoKIlXkBNb6t-29" value="" style="endArrow=classic;html=1;rounded=0;entryX=0.5;entryY=0;entryDx=0;entryDy=0;fontFamily=Helvetica;fontStyle=0" parent="WIyWlLk6GJQsqaUBKTNV-1" target="xiwa6ENlaoKIlXkBNb6t-0" edge="1">
          <mxGeometry width="50" height="50" relative="1" as="geometry">
            <mxPoint x="220" y="253" as="sourcePoint" />
            <mxPoint x="480" y="403" as="targetPoint" />
          </mxGeometry>
        </mxCell>
        <mxCell id="xiwa6ENlaoKIlXkBNb6t-30" value="刻画人物立体形象各维度向量表示" style="rounded=1;whiteSpace=wrap;html=1;fontSize=12;glass=0;strokeWidth=1;shadow=0;fontFamily=Helvetica;fontStyle=0" parent="WIyWlLk6GJQsqaUBKTNV-1" vertex="1">
          <mxGeometry x="200" y="648" width="370" height="40" as="geometry" />
        </mxCell>
        <mxCell id="xiwa6ENlaoKIlXkBNb6t-31" value="LLMs、Text2event、seqGPT等模型sft" style="rounded=1;whiteSpace=wrap;html=1;fontSize=12;glass=0;strokeWidth=1;shadow=0;fontFamily=Helvetica;fontStyle=0" parent="WIyWlLk6GJQsqaUBKTNV-1" vertex="1">
          <mxGeometry x="200" y="550" width="370" height="40" as="geometry" />
        </mxCell>
        <mxCell id="xiwa6ENlaoKIlXkBNb6t-33" value="所有筛选后角色相似度计算" style="rounded=1;whiteSpace=wrap;html=1;fontSize=12;glass=0;strokeWidth=1;shadow=0;fontFamily=Helvetica;fontStyle=0" parent="WIyWlLk6GJQsqaUBKTNV-1" vertex="1">
          <mxGeometry x="200" y="708" width="370" height="40" as="geometry" />
        </mxCell>
        <mxCell id="xiwa6ENlaoKIlXkBNb6t-34" value="角色、其他信息输入模块" style="rounded=1;whiteSpace=wrap;html=1;fontSize=12;glass=0;strokeWidth=1;shadow=0;fontFamily=Helvetica;fontStyle=0" parent="WIyWlLk6GJQsqaUBKTNV-1" vertex="1">
          <mxGeometry x="200" y="768" width="370" height="40" as="geometry" />
        </mxCell>
        <mxCell id="xiwa6ENlaoKIlXkBNb6t-35" value="角色融合建议" style="rounded=1;whiteSpace=wrap;html=1;fontSize=12;glass=0;strokeWidth=1;shadow=0;fontFamily=Helvetica;fontStyle=0" parent="WIyWlLk6GJQsqaUBKTNV-1" vertex="1">
          <mxGeometry x="200" y="828" width="370" height="40" as="geometry" />
        </mxCell>
        <mxCell id="xiwa6ENlaoKIlXkBNb6t-37" value="" style="rounded=0;html=1;jettySize=auto;orthogonalLoop=1;fontSize=11;endArrow=block;endFill=0;endSize=8;strokeWidth=1;shadow=0;labelBackgroundColor=none;edgeStyle=orthogonalEdgeStyle;entryX=1;entryY=0.5;entryDx=0;entryDy=0;exitX=1;exitY=0.5;exitDx=0;exitDy=0;fontFamily=Helvetica;fontStyle=0" parent="WIyWlLk6GJQsqaUBKTNV-1" source="xiwa6ENlaoKIlXkBNb6t-34" target="xiwa6ENlaoKIlXkBNb6t-31" edge="1">
          <mxGeometry relative="1" as="geometry">
            <mxPoint x="585" y="570" as="targetPoint" />
            <mxPoint x="585" y="788" as="sourcePoint" />
            <Array as="points">
              <mxPoint x="655" y="788" />
              <mxPoint x="655" y="570" />
            </Array>
          </mxGeometry>
        </mxCell>
        <mxCell id="xiwa6ENlaoKIlXkBNb6t-40" value="" style="endArrow=classic;html=1;rounded=0;entryX=0.5;entryY=0;entryDx=0;entryDy=0;exitX=0.5;exitY=1;exitDx=0;exitDy=0;fontFamily=Helvetica;fontStyle=0" parent="WIyWlLk6GJQsqaUBKTNV-1" source="xiwa6ENlaoKIlXkBNb6t-33" target="xiwa6ENlaoKIlXkBNb6t-34" edge="1">
          <mxGeometry width="50" height="50" relative="1" as="geometry">
            <mxPoint x="430" y="718" as="sourcePoint" />
            <mxPoint x="480" y="668" as="targetPoint" />
          </mxGeometry>
        </mxCell>
        <mxCell id="xiwa6ENlaoKIlXkBNb6t-41" value="" style="endArrow=classic;html=1;rounded=0;exitX=0.5;exitY=1;exitDx=0;exitDy=0;entryX=0.5;entryY=0;entryDx=0;entryDy=0;fontFamily=Helvetica;fontStyle=0" parent="WIyWlLk6GJQsqaUBKTNV-1" source="xiwa6ENlaoKIlXkBNb6t-31" target="xiwa6ENlaoKIlXkBNb6t-30" edge="1">
          <mxGeometry width="50" height="50" relative="1" as="geometry">
            <mxPoint x="430" y="776" as="sourcePoint" />
            <mxPoint x="480" y="726" as="targetPoint" />
          </mxGeometry>
        </mxCell>
        <mxCell id="xiwa6ENlaoKIlXkBNb6t-42" value="" style="endArrow=classic;html=1;rounded=0;entryX=0.5;entryY=0;entryDx=0;entryDy=0;exitX=0.5;exitY=1;exitDx=0;exitDy=0;fontFamily=Helvetica;fontStyle=0" parent="WIyWlLk6GJQsqaUBKTNV-1" source="xiwa6ENlaoKIlXkBNb6t-30" target="xiwa6ENlaoKIlXkBNb6t-33" edge="1">
          <mxGeometry width="50" height="50" relative="1" as="geometry">
            <mxPoint x="430" y="718" as="sourcePoint" />
            <mxPoint x="480" y="668" as="targetPoint" />
          </mxGeometry>
        </mxCell>
        <mxCell id="xiwa6ENlaoKIlXkBNb6t-43" value="" style="endArrow=classic;html=1;rounded=0;exitX=0.5;exitY=1;exitDx=0;exitDy=0;entryX=0.5;entryY=0;entryDx=0;entryDy=0;fontFamily=Helvetica;fontStyle=0" parent="WIyWlLk6GJQsqaUBKTNV-1" source="xiwa6ENlaoKIlXkBNb6t-34" target="xiwa6ENlaoKIlXkBNb6t-35" edge="1">
          <mxGeometry width="50" height="50" relative="1" as="geometry">
            <mxPoint x="430" y="718" as="sourcePoint" />
            <mxPoint x="480" y="668" as="targetPoint" />
          </mxGeometry>
        </mxCell>
        <mxCell id="xiwa6ENlaoKIlXkBNb6t-45" value="" style="endArrow=none;dashed=1;html=1;dashPattern=1 3;strokeWidth=2;rounded=0;fontFamily=Helvetica;fontStyle=0" parent="WIyWlLk6GJQsqaUBKTNV-1" edge="1">
          <mxGeometry width="50" height="50" relative="1" as="geometry">
            <mxPoint x="60" y="350" as="sourcePoint" />
            <mxPoint x="710" y="350" as="targetPoint" />
          </mxGeometry>
        </mxCell>
        <mxCell id="xiwa6ENlaoKIlXkBNb6t-46" value="" style="endArrow=none;dashed=1;html=1;dashPattern=1 3;strokeWidth=2;rounded=0;fontFamily=Helvetica;fontStyle=0" parent="WIyWlLk6GJQsqaUBKTNV-1" edge="1">
          <mxGeometry width="50" height="50" relative="1" as="geometry">
            <mxPoint x="60" y="43" as="sourcePoint" />
            <mxPoint x="710" y="43" as="targetPoint" />
          </mxGeometry>
        </mxCell>
        <mxCell id="xiwa6ENlaoKIlXkBNb6t-47" value="" style="endArrow=none;dashed=1;html=1;dashPattern=1 3;strokeWidth=2;rounded=0;fontFamily=Helvetica;fontStyle=0" parent="WIyWlLk6GJQsqaUBKTNV-1" edge="1">
          <mxGeometry width="50" height="50" relative="1" as="geometry">
            <mxPoint x="60" y="350" as="sourcePoint" />
            <mxPoint x="60" y="43" as="targetPoint" />
          </mxGeometry>
        </mxCell>
        <mxCell id="xiwa6ENlaoKIlXkBNb6t-48" value="" style="endArrow=none;dashed=1;html=1;dashPattern=1 3;strokeWidth=2;rounded=0;fontFamily=Helvetica;fontStyle=0" parent="WIyWlLk6GJQsqaUBKTNV-1" edge="1">
          <mxGeometry width="50" height="50" relative="1" as="geometry">
            <mxPoint x="710" y="350" as="sourcePoint" />
            <mxPoint x="710" y="43" as="targetPoint" />
          </mxGeometry>
        </mxCell>
        <mxCell id="xiwa6ENlaoKIlXkBNb6t-49" value="" style="endArrow=classic;html=1;rounded=0;fontFamily=Helvetica;fontStyle=0" parent="WIyWlLk6GJQsqaUBKTNV-1" edge="1">
          <mxGeometry width="50" height="50" relative="1" as="geometry">
            <mxPoint x="384.5" y="350" as="sourcePoint" />
            <mxPoint x="384.5" y="400" as="targetPoint" />
          </mxGeometry>
        </mxCell>
      </root>
    </mxGraphModel>
  </diagram>
</mxfile>
